<svg width="1024" height="1024" viewBox="0 0 1024 1024" fill="none" xmlns="http://www.w3.org/2000/svg">
<g clip-path="url(#clip0_0_103)">
<rect width="1024" height="1024" fill="white"/>
<rect width="1024" height="1024" fill="white"/>
<path fill-rule="evenodd" clip-rule="evenodd" d="M-0.540405 -0.250488H1024.25V1024.8H-0.540405V-0.250488Z" fill="#1A1919"/>
<mask id="mask0_0_103" style="mask-type:luminance" maskUnits="userSpaceOnUse" x="-1" y="-1" width="1026" height="1026">
<path fill-rule="evenodd" clip-rule="evenodd" d="M-0.540405 -0.250488H1024.25V1024.8H-0.540405V-0.250488Z" fill="white"/>
</mask>
<g mask="url(#mask0_0_103)">
<path fill-rule="evenodd" clip-rule="evenodd" d="M702.654 410.641C742.564 410.641 751.391 454.311 753.347 483.106H645.29C649.695 441.98 668.495 410.641 702.654 410.641ZM807.565 502.94C816.851 502.94 824.392 495.472 824.396 486.862C824.401 448.254 768.486 393.559 699.15 393.559C626.824 393.559 568.196 450.681 568.196 521.151C568.196 591.625 626.824 648.747 699.15 648.747C757.163 648.747 806.328 611.987 823.535 561.074H807.661C795.481 583.755 774.344 607.509 739.19 607.509C678.096 607.509 643.949 565.881 644.239 502.948C644.243 502.944 644.243 502.944 644.243 502.944L807.565 502.94ZM565.479 397.825H493.988V409.49H496.839C528.338 409.49 549.725 441.517 537.649 470.615L504.333 550.863L451.962 427.797C448.267 419.122 454.636 409.49 464.068 409.49H464.276V397.825H335.247V409.49H336.974C347.587 409.49 357.171 415.829 361.329 425.59L379.9 469.23L346.025 550.863L293.654 427.797C289.959 419.122 296.328 409.49 305.756 409.49H305.968V397.825H176.94V409.49H178.666C189.28 409.49 198.864 415.829 203.022 425.59L290.548 631.259C294.217 639.877 302.684 645.463 312.052 645.446C321.462 645.433 329.943 639.761 333.551 631.068L390.444 494.005L448.86 631.259C452.524 639.877 460.992 645.463 470.359 645.446C479.77 645.433 488.255 639.761 491.859 631.068L579.787 419.256C584.019 409.058 576.521 397.825 565.479 397.825ZM808.924 809.473C729.537 888.857 623.994 932.578 511.723 932.578C399.461 932.578 293.914 888.857 214.527 809.473C135.143 730.086 91.4216 624.539 91.4216 512.277C91.4216 400.006 135.143 294.459 214.527 215.076C293.914 135.693 399.461 91.9711 511.723 91.9711C623.994 91.9711 729.537 135.693 808.924 215.076C888.311 294.459 932.025 400.006 932.025 512.277C932.025 624.539 888.311 730.086 808.924 809.473ZM837.364 186.632C795.078 144.347 745.831 111.143 690.989 87.9472C634.201 63.9293 573.89 51.7495 511.723 51.7495C449.565 51.7495 389.25 63.9293 332.461 87.9472C277.624 111.143 228.372 144.347 186.082 186.632C143.797 228.922 110.593 278.169 87.3977 333.011C63.3798 389.799 51.2 450.114 51.2 512.277C51.2 574.435 63.3798 634.75 87.3977 691.539C110.593 746.381 143.797 795.628 186.082 837.913C228.372 880.203 277.624 913.407 332.461 936.602C389.25 960.62 449.565 972.8 511.723 972.8C573.89 972.8 634.201 960.62 690.989 936.602C745.831 913.407 795.078 880.203 837.364 837.913C879.654 795.628 912.853 746.381 936.053 691.539C960.071 634.75 972.25 574.435 972.25 512.277C972.25 450.114 960.071 389.799 936.053 333.011C912.853 278.169 879.654 228.922 837.364 186.632Z" fill="white"/>
</g>
</g>
<defs>
<clipPath id="clip0_0_103">
<rect width="1024" height="1024" fill="white"/>
</clipPath>
</defs>
</svg>
